<?xml version="1.0" encoding="utf-8"?>
<!-- Generator: Adobe Illustrator 28.3.0, SVG Export Plug-In . SVG Version: 6.00 Build 0)  -->
<svg version="1.1" id="Layer_1" xmlns="http://www.w3.org/2000/svg" xmlns:xlink="http://www.w3.org/1999/xlink" x="0px" y="0px"
	 viewBox="0 0 300 300" style="enable-background:new 0 0 300 300;" xml:space="preserve">
<style type="text/css">
	.st0{display:none;}
	.st1{display:inline;fill:#DCDCDC;}
	.st2{fill:#A9523A;}
	.st3{fill:#843F2F;}
	.st4{fill:#E9A369;}
	.st5{fill:#D38A54;}
	.st6{fill:#321D11;}
	.st7{fill:#EFDCAA;}
	.st8{fill:#C8AC6F;}
	.st9{fill:#BB9457;}
	.st10{fill:#DFC68D;}
	.st11{fill:#B28146;}
	.st12{fill:#98652C;}
	.st13{fill:#7A4412;}
	.st14{fill:#E4AB86;}
	.st15{fill:#C98265;}
	.st16{fill:#B45958;}
	.st17{fill:#9E4A41;}
	.st18{fill:#661B19;}
	.st19{fill:#8A3C36;}
	.st20{fill:#E8A691;}
	.st21{fill:#181414;}
	.st22{fill:#F0C4A8;}
	.st23{fill:#391408;}
	.st24{fill:#55121B;}
	.st25{fill:#741F29;}
	.st26{fill:#B32E47;}
	.st27{fill:#D4516B;}
	.st28{fill:#C83D5D;}
	.st29{fill:#E87582;}
	.st30{fill:#931526;}
	.st31{fill:#8B4B39;}
	.st32{fill:#28110A;}
	.st33{fill:#E7FEFE;}
	.st34{fill:#AFEAF6;}
	.st35{fill:#1D1F1E;}
	.st36{fill:#126D7F;}
	.st37{fill:#E2EAF9;}
	.st38{fill:#21150F;}
	.st39{fill:#FDFDFD;}
	.st40{fill:#11879E;}
	.st41{fill:#2E6233;}
</style>
<g>
	<g id="Background_00000183233287810071071110000006781037371828190630_" class="st0">
		<path class="st1" d="M77.6,265.4c-11.9,0-23.8,0-35.6,0c0-111.9,0-111.9,0-223.8c111.9,0,111.9,0,223.8,0c0,111.9,0,111.9,0,223.8
			c-12.2,0-24.3,0-36.5,0c0.6-20.6,11.5-58.2-13.1-68.6c4.9-13.3,5.1-37.2-7-46.8c-0.8-2.5-3.1-6.7-3.7-10.8
			c-1.3-8.4,0.6-18.1-0.9-26.9c-0.5-3-3-11-4.4-13.8c-1.8-3.7-5.4-7.9-7.2-11.4c-3.7-7-4.3-15.6-10.3-22.5c-3.1-3.6-7.8-7-12.8-5.8
			c-1.2,0.3-2.4,1.6-3.4,1.5c-0.1-0.1-2.1-3-2.5-3.3c-3.9-3.1-11.1-3.6-15.8-3.3c-1.5,0.1-3.1,0.4-4.6,0.7
			c-9.4,1.6-16.6,6.5-22.7,13.7c-10.7,12.5-9.1,21-11.8,30.2c-1.1,3.9-3.8,8.2-5,12.5c-1.7,6.3-2.3,13.6-2.8,20
			c-0.5,5.5,0.1,10.8-1.7,16.1c-0.4,1.3-1.6,3-2,3.8c-9.7,8.8-9.6,27.6-7.4,39.5c0.3,1.9,1.8,5.4,1.7,5.7c-0.1,0.7-6.6,2.3-11.1,8.7
			C71.1,218.1,76.5,249.2,77.6,265.4z"/>
	</g>
	<g>
		<g>
			<g>
				<path class="st2" d="M115.6,191.1c1.4,7.7,3.1,15.3,4.6,22.9c3.2,16.5,7.1,34.8,7.9,51.4c-8.8,0-17.6,0-26.4,0
					c0.3-16.7-5-32.7-7.1-49.2c-0.8,4.4,0.1,4.2,0.1,4.5c1.2,16.2,5.7,28.8,5.2,44.7c-7.2,0-14.4,0-21.6,0
					c-1.5-16.2-6.8-47.9,3.3-61.3c6.3-8.4,16.4-9.5,25.8-11.7c1.3-0.3,2.6-0.6,3.9-0.9c0.2-0.1,0.8,0,1.7-0.2
					C115.2,190.8,115.5,191.1,115.6,191.1z"/>
				<path class="st3" d="M101.7,265.4c-0.6,0-1.2,0-1.7,0c0.4-15.9-4.1-28.5-5.2-44.7c0-0.2-0.9,0-0.1-4.5
					C96.7,232.7,101.9,248.6,101.7,265.4z"/>
			</g>
			<g>
				<path class="st2" d="M192.8,190.9c0.6,0.1,1.2,0.3,1.7,0.4c0.7,0.2,1.9,0.1,2.4,0.2c0.9,0.2,1.7,0.4,2.6,0.7
					c0.7,0.2,1.3,0.3,2,0.4c0.3,0.1,0.6,0.1,0.9,0.2c4.5,1.1,9.5,2.1,13.8,3.9c24.6,10.5,13.7,48,13.1,68.6c-7.5,0-15,0-22.5,0
					c-1-16.4,5.9-31.8,6.4-48.1c-2.7,16-8.8,31.6-7.3,48.1c-9.5,0-19.1,0-28.6,0c0.1-14.7,4.3-33.6,7.2-48.6c1-5,5.6-24.3,5.7-26.3
					C191,190.6,192,190.7,192.8,190.9z"/>
				<path class="st3" d="M206.8,265.4c-0.3,0-0.6,0-0.9,0c-1.5-16.5,4.7-32.1,7.3-48.1C212.6,233.6,205.8,249,206.8,265.4z"/>
			</g>
			<g>
				<path class="st4" d="M184.7,188.7c1.8,0.6,3.7,1.3,5.5,1.7c-0.1,2-4.7,21.3-5.7,26.3c-2.9,15-7.1,33.9-7.2,48.6
					c-16.4,0-32.8,0-49.2,0c-0.8-16.5-4.7-34.9-7.9-51.4c3.6-4.3,8-7.8,12.5-11.1c0.7,0.4,1.4,0.6,2.2,0.9c4.5,1.8,6.9,2.5,11.7,3.1
					c0.2,0,0,0.4,0.2,0.4c5.3,0.6,14.5-0.3,19.7-1.7c7-2,15.6-7.1,17.6-14.5C184.2,190.3,184,188.5,184.7,188.7z"/>
				<path class="st5" d="M132.7,202.9c-4.4,3.4-8.9,6.8-12.5,11.1c-1.5-7.7-3.1-15.3-4.6-22.9c0.7-0.2,4.5-1.9,5.7-2.4
					C122.9,195.4,126.6,199.8,132.7,202.9z"/>
			</g>
		</g>
		<g>
			<path class="st6" d="M185.8,106.9c-0.7-0.1,0.7,1.5,0.5,2.4c-1.5-0.3-1.5-0.9-2.5-1.3c-1.2-2.2-2-5.1-2.6-7.6
				C182,102,184.5,104.9,185.8,106.9z"/>
			<g>
				<path class="st7" d="M209.2,150c2.5,8,4.6,14.4,3.3,22.9c-0.4-4.5-0.4-4.5-0.9-9.1c-2.8-14.2-12-17.1-11.1-34.1
					c-0.2,0-0.2,0-0.4,0c0.1,9.1,0.2,18.5,3.5,27.1c-0.2,0-0.2,0-0.4,0c-0.8-2.2-2.8-3.9-3.9-5.9c-5.2-9.4-1.7-20.8-2.4-31
					c-0.4-5.7-1.9-9.2-0.4-0.7c0.3,9.4-2.7,23.6-2.2,31.3c0,0.6,1.2,5.9-0.2,2.4c-0.1-0.2,0.2-0.4,0.2-0.4c-3.4-9-2.8-14.4-3.5-16.6
					c-0.1-0.5-0.3-0.8-0.9-1c0.5-2.3,0.7-4.7,1.1-7c0.4-2.1,2.5-6.8,2.2-11c-0.4-4.7-11.5-28.3-14.4-33.3c-0.1-0.2,0-0.8-0.5-1.3
					c-0.2,0.5,0.4,1,0.5,1.3c1.8,4.6,3.4,9.3,5.2,13.9c0.9,2.2,6.5,13.3,6.3,14.4c0,0.1-0.7,0.8-0.9,1c-0.2-0.6-0.6-1-0.9-1.5
					c-1.1-2.3-1.4-2.5-2.6-4.4c-1.3-2-3.8-4.9-4.6-6.6c-0.7-1.3-0.6-1.7-0.7-1.7c-2.4-6.1-2.1-10.2-8.1-18.5
					c-1.1-1.5-2.6-2.4-2.6-2.6c0-0.3,1.8-4.3,2.2-4.8c0.2-1.5-5.1-4.7,0.9-3.1c-1.8-2.9-4.5-3.7-0.8-3.2c1.1,0.1,7.2,3,0.9-0.9
					c-3.2-2-8.5-3,0.4-3.7c-2.9-0.7-5.4-0.2-5.7-0.2c-0.1,0-1-1.1-1.2-1.3c0.9,0.1,2.2-1.2,3.4-1.5c5-1.2,9.6,2.2,12.8,5.8
					c6,6.9,6.5,15.5,10.3,22.5c1.8,3.5,5.4,7.6,7.2,11.4c1.3,2.8,3.9,10.8,4.4,13.8c1.5,8.8-0.5,18.5,0.9,26.9
					C206.1,143.3,208.4,147.5,209.2,150z"/>
				<path class="st8" d="M143.6,54.5c1.3,0.7-2,1.1-3.4,1.7c-3.5,1.7-10.1,7.3-9.9,11.1c-2.9,5-4.2,11.6-7.2,16.7
					c0.1,0.2,0.1,0.2,0.2,0.4c2-3.1,4.2-6,6.8-8.6c0.1,1.1-4.3,6.5-4.2,6.9c0.2,0.5,6.7-7.9,7.4-8.6c3.3-3.4,9.5-8.1,14.2-8.9
					c-5.4,2.5-11.4,7.9-14.2,13.2c-0.2,0.2-0.2,0.2-0.3,0.4c0.2-0.2,0.2-0.2,0.3-0.4c2.6-2.7,5.1-5.7,8.5-7.3
					c-7.2,5.7-10.6,12.4-15.7,19.7c0.2,0.2,0.2,0.2,0.3,0.3c3.5-3.4,7.5-6.3,11.5-9.1c-6.6,6.6-10,15.4-14.4,23.4
					c-0.1,0.2,0.1,0.8,0,1c0,0.1,0,0.2,0,0.2c-0.2,0.3-4,2.9-4.6,4c-0.2,0.3,0.3,0.7,0.2,0.8c-0.6,1.2-1.2,2.4-1.5,3.7
					c-0.5,1.6-0.2,1.9-0.2,2c0,0.1-0.7-0.3-0.9,2c-0.4,0.2-0.8,1.3-1.1,2c-2.9-0.9-0.4-1.9-0.7-6.7c3-9.1-0.2-0.3-1.5,2.8
					c0.7,2.5-1.7,4.8-2.2,6.8c-0.4,1.4,0,4.5-1.1,5.9c-1.4,1.8-7,2-8.7,0.8c0.6-6.4,1.1-13.7,2.8-20c1.2-4.3,3.9-8.6,5-12.5
					c2.7-9.2,1.1-17.7,11.8-30.2C127,61,134.2,56.1,143.6,54.5z"/>
				<path class="st9" d="M115.4,121.1c-2.3,5-3.1,7.4-3.1,13.1c0,2.1,0.6,4.3,0.7,6.4c0.3,13.6-1.5,14.7-8.3,26
					c3.7-3.9,7.9-7.8,9.9-13c0.5,0.3-2.1,8.8-2.5,9.7c0.2,0,0.2,0,0.4,0c2.9-4.4,4.6-5.9,5.9-11.3c0.1,15.1-10.8,21.1-5.5,39.1
					c-0.9,0.2-1.5,0.2-1.7,0.2c-5.3-6.7-9.2-11.7-8.6-20.8c-1.6,5.1-0.2,10.2,0.8,15.3c-3.7-5.8-7.4-10.4-8.3-17.6
					c-1-7.8-0.2-11,2.4-17.8c0.3-0.8,1.5-2.6,2-3.8c1.8-5.3,1.3-10.6,1.7-16.1c1.7,1.2,7.3,1,8.7-0.8c1.1-1.4,0.7-4.5,1.1-5.9
					c0.5-2,2.9-4.3,2.2-6.8c1.3-3.1,4.5-11.9,1.5-2.8C115.1,119.2,112.5,120.3,115.4,121.1z"/>
				<path class="st10" d="M148.2,53.8c0.3,1-4.1,2.2-6.2,3.3c-4.7,2.4-9.1,5.7-11.7,10.3c-0.1-3.9,6.4-9.4,9.9-11.1
					c1.4-0.7,4.7-1.1,3.4-1.7C145.1,54.2,146.7,53.9,148.2,53.8z"/>
				<path class="st9" d="M190.2,190c0,0.1,0,0.3,0,0.4c-1.8-0.5-3.7-1.1-5.5-1.7c-0.3-0.1-0.9-0.6-1.1-0.7c-0.1-1.3-1.1-2.5-1.5-3.7
					c-0.9-2.8-1.3-5.7-1.7-8.5C182.6,181.2,186.8,185.2,190.2,190z"/>
				<path class="st11" d="M188.4,130.1c-2.1,7-4.9,10.1-5.5,19.6c-1.1,19.4,5.3,19.4,9,24.4c0.4,8.4,0.4,8.4,0.9,16.8
					c-0.8-0.2-1.8-0.2-2.6-0.4c0-0.1,0-0.3,0-0.4c0-5.9-11.6-19.3-11.1-31.1c-0.5,5.7,0.4,11.3,1.3,16.9c0.5,2.9,0.8,5.8,1.7,8.5
					c-1.4-0.8-1.5-3.3-2.4-4.7c0.2,3.7,0.2,3.7,0.4,7.3c-0.6-0.3-1.2-0.6-1.7-0.9c-8.2-10.8-6.3-24.4-3.9-36.9
					c3.3-3.7,5.5-10,6.3-14.9c1.7-1,3.1-2.2,4.6-3.5c1-1,2.3-2.1,3.1-3.3C189.9,126.6,188.9,128.4,188.4,130.1z"/>
				<path class="st8" d="M195,180.1c0.2,3.7,0.6,7.5-0.4,11.1c-0.6-0.1-1.2-0.3-1.7-0.4c-0.4-8.4-0.4-8.4-0.9-16.8
					C193.2,175.8,194.3,178,195,180.1z"/>
				<path class="st11" d="M196.9,191.5c-0.5-0.1-1.7,0-2.4-0.2c1-3.6,0.6-7.4,0.4-11.1C196.1,183.8,196.3,187.8,196.9,191.5z"/>
				<path class="st11" d="M123.1,132.9c0,1.3,0.3,2.5,0.4,3.7c-1.6,0.4-0.1,5.9,0,8.2c0.1,3-0.1,6.6,0,9.8c0,0.8,0.6,2.5,0.7,3.5
					c0.4,12.9-3.4,16.7-7.2,28c4.1-4.3,7.3-14,8.1-19.8c0.3,3,0.3,9.3,0,12c-0.7,5.5-3.5,8.7-3.7,9.3c-0.1,0.2-0.1,0.8,0.2,0.8
					c0,0,0.1,0.1-0.2,0.2c-1.2,0.5-4.9,2.2-5.7,2.4c-0.1,0-0.4-0.3-2.6,0.2c-5.4-18.1,5.5-24,5.5-39.1c0.4-1.8,0.6-4,1.1-6.1
					c1-4.4,1.7-8.8,2.8-13.1C122.6,132.9,122.9,132.9,123.1,132.9z"/>
				<path class="st11" d="M111.3,191.5c-1.3,0.3-2.6,0.6-3.9,0.9c-1.6-2-2.6-4.3-3.9-6.3c-0.9-5.1-2.4-10.2-0.8-15.3
					C102.1,179.8,105.9,184.8,111.3,191.5z"/>
				<path class="st11" d="M166.6,60.4c0.2,0.2,1.1,1.3,1.2,1.3c0.3,0.1,2.8-0.5,5.7,0.2c-8.9,0.7-3.7,1.8-0.4,3.7
					c6.4,3.8,0.2,1-0.9,0.9c-3.8-0.5-1,0.2,0.8,3.2c-6-1.7-0.7,1.5-0.9,3.1c-0.4,0.6-2.2,4.5-2.2,4.8c0,0.2,1.5,1.1,2.6,2.6
					c6,8.2,5.7,12.4,8.1,18.5c-0.2,0.1-0.2,0.1-0.3,0.2c-2.8-4.6-4.2-9.9-7.5-14.1c-1.8-2.3-9.5-8.8-10.2-8.9
					c-2.7-0.4-13.9,6.3-16.9,7.9c1.5-1.3,3.3-3.8,4.7-5c8-7,12.4-4.8,13.4-5.6c1.1-0.8,2.1-5.8,1.7-8.1c-0.3-1.8-3.2-4.5,0.3-1.6
					c1.7-2.5-1.8-3.6-4-4.9C161.9,57.8,166.2,60.3,166.6,60.4z"/>
				<path class="st7" d="M190.8,127.9c-0.2-2.8-0.2-2.8-0.4-5.7c0.6-3.4,0.1-6.2-1.1-9.4c0.1-0.2,0.9-0.9,0.9-1
					c0.2-1.1-5.4-12.2-6.3-14.4c-1.9-4.5-3.5-9.3-5.2-13.9c3,5.1,14.1,28.7,14.4,33.3C193.3,121.1,191.2,125.8,190.8,127.9z"/>
				<path class="st9" d="M190.8,127.9c-0.4,2.3-0.6,4.7-1.1,7c-0.7,3.4-1.2,6.9-2.4,10.2c0.5-7.5,0.5-7.5,1.1-15
					c0.5-1.7,1.5-3.5,0-2.6c0-0.1,0-0.4,0-0.4c0.9-1.6,1.7-2.9,2-4.8C190.6,125.1,190.6,125.1,190.8,127.9z"/>
				<path class="st7" d="M178.6,83.5c-0.2-0.3-0.8-0.8-0.5-1.3C178.6,82.7,178.5,83.4,178.6,83.5z"/>
				<path class="st12" d="M117.8,124.9c-0.3,1.2,1.1,3.6,1.5,4.9c0.1,0.2-0.8,2.7,1.5,3.2c0.3,0.1,1.1,0,1.5,0
					c-1.2,4.3-1.9,8.7-2.8,13.1c-1.3,1.2-1.7-2.4-2.4-3.8c-0.9-1.9-4.3-8.9-4.8-8c-0.1-5.7,0.7-8.1,3.1-13.1c0.3-0.7,0.7-1.7,1.1-2
					C116.4,120.5,116.8,124,117.8,124.9z"/>
				<path class="st7" d="M133.3,74.1c-0.7,0.7-7.2,9.2-7.4,8.6c-0.2-0.4,4.2-5.8,4.2-6.9C130.9,75,130.6,74,133.3,74.1z"/>
				<path class="st7" d="M133.3,78.5c-0.2,0.2-0.2,0.2-0.3,0.4C133.2,78.7,133.2,78.7,133.3,78.5z"/>
				<g>
					<path class="st7" d="M166.6,60.4c-0.3,0-4.7-2.5-4.8-1.9c2.2,1.3,5.8,2.4,4,4.9c-3.5-2.9-0.6-0.1-0.3,1.6
						c0.4,2.3-0.6,7.2-1.7,8.1c-1,0.8-5.4-1.4-13.4,5.6c-1.4,1.2-3.2,3.7-4.7,5c-1.5,1.3-3.5,2.3-4.9,3.7
						c-6.2,5.9-11.4,12.6-17.2,19c0.1-0.2-0.1-0.8,0-1c4.4-8,7.9-16.8,14.4-23.4c-4,2.8-7.9,5.7-11.5,9.1c-0.2-0.2-0.2-0.2-0.3-0.3
						c5.1-7.2,8.6-14,15.7-19.7c-3.4,1.7-6,4.6-8.5,7.3c2.9-5.3,8.8-10.7,14.2-13.2c-4.7,0.8-10.9,5.5-14.2,8.9
						c-2.7-0.1-2.4,0.9-3.3,1.7c-2.6,2.6-4.7,5.6-6.8,8.6c-0.1-0.2-0.1-0.2-0.2-0.4c3-5.1,4.3-11.7,7.2-16.7
						c2.6-4.6,7-7.8,11.7-10.3c2.1-1.1,6.5-2.2,6.2-3.3c4.7-0.3,12,0.2,15.8,3.3C164.5,57.4,166.4,60.2,166.6,60.4z"/>
					<path class="st8" d="M151,74.1c-7.7,7.2-15.2,14.6-21.6,22.9C134.3,87.7,142.3,80,151,74.1z"/>
					<path class="st8" d="M152.1,73.3c-0.1,0.4-0.8,0.7-1.1,0.9C151.2,74,151.2,73.3,152.1,73.3z"/>
					<path class="st8" d="M152.1,73.3c0.2-0.2,0.2-0.2,0.4-0.3C152.4,73.1,152.4,73.1,152.1,73.3z"/>
					<path class="st8" d="M129.4,97.1c-0.2,0.2-0.2,0.2-0.3,0.4C129.2,97.3,129.2,97.3,129.4,97.1z"/>
				</g>
				<path class="st12" d="M119.6,146.1c-0.5,2.1-0.7,4.3-1.1,6.1c-1.3,5.4-3,6.8-5.9,11.3c-0.2,0-0.2,0-0.4,0
					c0.4-0.9,3.1-9.5,2.5-9.7c-2,5.2-6.2,9.1-9.9,13c6.9-11.4,8.6-12.4,8.3-26c0-2.1-0.6-4.3-0.7-6.4c0.5-1,3.9,6.1,4.8,8
					C117.9,143.7,118.3,147.2,119.6,146.1z"/>
				<path class="st12" d="M178.4,186c-2.2-1.1-5.6-2.6-7-4.7c-3.6-5.3-2.3-21.5-1.5-28.1c1.5-1.3,3.3-2.7,4.6-4.2
					C172,161.6,170.2,175.2,178.4,186z"/>
				<path class="st12" d="M182.1,184.3c0.4,1.2,1.4,2.4,1.5,3.7c-1.1-0.4-2.4-0.6-3.5-1.1c-0.2-3.7-0.2-3.7-0.4-7.3
					C180.6,181,180.6,183.5,182.1,184.3z"/>
				<path class="st12" d="M132.5,150c2.2,11.3,1.9,23.6-3.3,34.1c-1.3,0.9-2.5,1.6-3.9,2.4c1.2-2.3,2.3-8.1,2-10.4
					c-0.4-3-1.2,3.7-2.2,2.3c0.3-2.7,0.3-9,0-12c1.3-9.8-0.4-20-1.5-29.7c-0.1-1.2-0.4-2.5-0.4-3.7c0.5,0,1.1,0.1,1.5-0.2
					C126.1,139.2,127.9,144.8,132.5,150z"/>
				<path class="st13" d="M136.2,153.5c0.5,5.9,1.1,22.4-2,27c-1.2,1.8-3.4,2.5-5,3.6c5.1-10.5,5.5-22.8,3.3-34.1
					C133.5,151.2,135,152.4,136.2,153.5z"/>
				<path class="st13" d="M125.3,186.5c-1.2,0.7-2.4,1.4-3.7,2c-0.3,0-0.3-0.6-0.2-0.8c0.2-0.6,3-3.8,3.7-9.3c1,1.4,1.7-5.3,2.2-2.3
					C127.6,178.4,126.4,184.2,125.3,186.5z"/>
				<path class="st8" d="M190.2,190c-3.3-4.8-7.6-8.7-9.8-14.2c-1-5.6-1.8-11.2-1.3-16.9C178.6,170.7,190.2,184.1,190.2,190z"/>
				<g>
					<path class="st7" d="M212.5,172.9c-1.2,8.1-5.8,13.3-10.1,19.9c-0.3-0.1-0.6-0.1-0.9-0.2c1.1-5.5,2-11.3,0.5-16.8
						c0.5,5.6-0.9,11.1-2.5,16.4c-0.9-0.2-1.7-0.4-2.6-0.7c-0.7-3.8-0.9-7.7-2-11.4c-0.6-2.1-1.7-4.4-3.1-6.1
						c-3.7-4.9-10.1-5-9-24.4c0.6-9.5,3.4-12.6,5.5-19.6c-0.5,7.5-0.5,7.5-1.1,15c1.2-3.3,1.7-6.8,2.4-10.2c0.5,0.1,0.7,0.5,0.9,1
						c0.7,2.2,0.1,7.6,3.5,16.6c0,0-0.3,0.2-0.2,0.4c1.5,3.5,0.3-1.8,0.2-2.4c-0.5-7.7,2.5-21.8,2.2-31.3c-1.4-8.6,0.1-5.1,0.4,0.7
						c0.7,10.2-2.8,21.6,2.4,31c1.1,2,3.2,3.7,3.9,5.9c0.2,0,0.2,0,0.4,0c-3.3-8.6-3.4-18-3.5-27.1c0.2,0,0.2,0,0.4,0
						c-0.9,17,8.4,19.9,11.1,34.1C212,168.4,212,168.4,212.5,172.9z"/>
					<path class="st9" d="M201.5,192.6c-0.6-0.2-1.3-0.3-2-0.4c1.6-5.3,3-10.8,2.5-16.4C203.5,181.3,202.6,187.1,201.5,192.6z"/>
					<path class="st8" d="M201.9,174.9c0.1,0.3,0.4,0.7,0.2,0.7C201.7,175.7,201.6,175,201.9,174.9z"/>
				</g>
				<path class="st9" d="M123.5,136.7c1.2,9.8,2.9,19.9,1.5,29.7c-0.8,5.8-4,15.5-8.1,19.8c3.8-11.3,7.6-15.1,7.2-28
					c0-1-0.6-2.7-0.7-3.5c-0.1-3.2,0.1-6.8,0-9.8C123.4,142.5,122,137.1,123.5,136.7z"/>
			</g>
			<g>
				<path class="st14" d="M178.4,186c0.6,0.3,1.1,0.6,1.7,0.9c1.1,0.5,2.4,0.7,3.5,1.1c0.2,0.1,0.8,0.6,1.1,0.7
					c-0.7-0.1-0.5,1.7-0.7,2.3c-2,7.5-10.6,12.5-17.6,14.5c-5.2,1.5-14.4,2.3-19.7,1.7c-0.2,0,0-0.4-0.2-0.4
					c-4.8-0.6-7.2-1.2-11.7-3.1c6.3-1.9,6.3-1.9,12.7-3.8c-0.9-3.3-5.5-19.1-5-21c0.3-1.3,17.1-16.5,19-19.1
					c2.1-1.2,6.3-4.8,8.3-6.6c-0.8,6.6-2.1,22.8,1.5,28.1C172.8,183.4,176.1,185,178.4,186z"/>
				<path class="st15" d="M137.5,154.6c7.4,6.3,14.6,10.6,24,5.2c-1.9,2.6-18.7,17.8-19,19.1c-0.4,1.9,4.2,17.7,5,21
					c-6.3,1.9-6.3,1.9-12.7,3.8c-0.7-0.3-1.4-0.5-2.2-0.9c-6.1-3.1-9.8-7.5-11.4-14.2c0.3-0.1,0.2-0.2,0.2-0.2
					c1.3-0.6,2.5-1.3,3.7-2c1.4-0.8,2.6-1.5,3.9-2.4c1.7-1.1,3.8-1.8,5-3.6c3.1-4.6,2.5-21.1,2-27
					C136.5,153.8,137.1,154.2,137.5,154.6z"/>
				<path class="st15" d="M180.6,98.6c0,0.1,0,0.4,0.7,1.7c0.6,2.6,1.4,5.4,2.6,7.6c-0.5-0.2-2.5-0.7-3.3-0.9
					c-0.5-0.1-1.1-0.4-1.5-0.4c-0.2-1.1-0.4-2.7-1.3-3.3c0.1,0,0.1,0,0.2,0c0.1-0.4,0.1-0.4,0.2-0.8c-3.2-12.3-6.1-16.7-15-25.5
					c-12.1,3.2-22.3,13-25,25.4c-3.6-0.3-7.6,0.2-11.1,1c4.2,0.1,8.5,1.5,11.1,1.9c-0.4,0.7,0.8,0.3-0.4,0.9
					c-5.9-0.5-10.8,1.4-14.2,0.4c0-0.1,0-0.2,0-0.2c5.7-6.4,10.9-13.1,17.2-19c1.5-1.4,3.4-2.4,4.9-3.7c3-1.5,14.3-8.3,16.9-7.9
					c0.7,0.1,8.4,6.6,10.2,8.9c3.4,4.2,4.8,9.5,7.5,14.1C180.4,98.7,180.4,98.7,180.6,98.6z"/>
				<path class="st16" d="M188.4,111.3c0.2,0.5,0.7,1,0.9,1.5c1.2,3.2,1.7,6,1.1,9.4c-0.3,1.9-1,3.2-2,4.8c-1.1-1.2-2.4-2.1-3.7-3.1
					c0.1-0.3,0.3-0.4,0.4-0.7c3.9-2.6,3.5-4.9-0.7-6.8c0.4-1.6-0.5-3.3,1.5-2.2c0.5,0.3,5.6,4.7,1.7,0.9c0.5-0.8-0.9-2.5-1.5-3.5
					C187.1,111.1,187.5,111.3,188.4,111.3z"/>
				<path class="st17" d="M119.1,117.2c-0.4,2.3-1.5,2.1,0.2,4.6c0.7,1,1.9,2,3.1,2.4c0,0.1,0,0.3,0,0.4c-0.5,0.4-0.5,1-0.7,1.5
					c-1-0.5-3.2-0.7-3.9-1.3c-1-0.8-1.4-4.4-1.3-5.7c0.1-2.2,0.8-1.9,0.9-2c-0.3,0.8,1.1-0.4,1.7-0.9
					C118.8,117.3,119.1,117.2,119.1,117.2z"/>
				<path class="st16" d="M122.4,116.3c-1.7-0.3-2-0.4-3.3,0.9c0,0-0.4,0.1,0-0.9c0.6-0.5,1.2-0.9,1.7-1.4c-1.9-2-2.5,1.7-3.3,0.3
					c0.4-1.3,1-2.5,1.5-3.7C121.6,112,121.8,114.4,122.4,116.3z"/>
				<path class="st18" d="M119.1,116.3c-0.7,0.5-2.1,1.7-1.7,0.9c0-0.1-0.2-0.4,0.2-2c0.8,1.3,1.4-2.4,3.3-0.3
					C120.4,115.5,119.7,115.9,119.1,116.3z"/>
				<path class="st19" d="M169.8,153.3c-2,1.7-6.2,5.4-8.3,6.6c-9.5,5.4-16.6,1-24-5.2c3.6,2.2,7.1,4.3,11.1,5.5
					c0.8,0.2,2.7,1,3.4,1.1C158.2,161.8,165,156.6,169.8,153.3z"/>
				<path class="st15" d="M149.7,131.2c-2.6-1.3-2.3,1.1-0.2,2.2c0.3,3.3,0.3,3.3,0.7,6.6c-1.2-0.1-4.7,1.8-6.1,2.2
					c-2.3-0.1-3.2-0.9-3.1-0.3c1.2,0.7,2.2,1.7,3.3,2.5c1,0.8,2.4,2.1,3.5,2.6c4,1.9,6.6,0.8,7.4,0.9c0.3,0,1.7,0.3,1.2,0.7
					c-4.6,2.2-11.8,5.6-7.8,11.6c-4-1.2-7.6-3.2-11.1-5.5c-0.4-0.3-1-0.8-1.3-1.1c-1.2-1.1-2.6-2.3-3.7-3.5
					c-4.6-5.2-6.4-10.8-7.9-17.3c0-0.1,0.3-0.2-0.2-2.6c-0.3-1.5-0.9-3.8-2-4.6c0-0.3,0-0.6,0-0.9c0-0.1,0-0.3,0-0.4
					c0-1.3-0.8-5.1,0.4-6.1c1.9,5.4,3.1,8.4,9.4,10.1c0.4,3.4-3.2,3.2-2.4,6.7c1.4,5.7,14.8-1.5,15.1-8.9c2.6-2,3.7-5.2,4.8-8.1
					C151.7,122.2,149.5,126.7,149.7,131.2z"/>
				<path class="st20" d="M184.7,124c1.3,0.9,2.6,1.9,3.7,3.1c0,0.1,0,0.4,0,0.4c-0.8,1.2-2,2.3-3.1,3.3c-0.9-0.1-1.7-0.2-2.6-0.2
					c0.1-0.3-0.4-0.6-0.4-0.7c0.8,0.1,0.5-2,0.7-2.3c0.1-0.2,0.4,0.1,0.9-0.3c0.2-0.2,1.5-0.2-0.7-1.7c0.1-0.1-0.1-0.6,0-0.8
					c0.2-0.3,1.1-0.9,1.1-1C184.3,124.1,184.6,123.9,184.7,124z"/>
				<path class="st21" d="M182.7,130.5c0.9,0,1.7,0.1,2.6,0.2c-1.4,1.3-2.9,2.5-4.6,3.5C181.4,130.6,179.6,130.4,182.7,130.5z"/>
				<path class="st22" d="M177.9,103.4c-0.4-0.4-2.3-1-2.7-1.1c-2.1-0.2-13.7,0.7-15,2c-3.2,4.8,9.5-0.3,11.1-0.7
					c2.1-0.5,4.3-1,6.3-0.2c1,0.5,1.1,2.1,1.3,3.3c-4-0.7-8.2-1-12.2-0.4c-6.7,0.9-9.4,4-9.9,4.2c-0.4,0.1-7.1,0.1-7.4,0
					c-0.6-0.1-4.8-3.6-11.7-4.2c1.2-0.6,0-0.1,0.4-0.9c1,0.1,7.3,1,7.6,0.5c-1.5-2.5-5-3.2-7.6-3.4c2.8-12.4,12.9-22.2,25-25.4
					c8.9,8.7,11.8,13.2,15,25.5C178,103,178,103,177.9,103.4z"/>
				<path class="st23" d="M138.2,102.6c2.7,0.2,6.2,0.9,7.6,3.4c-0.3,0.4-6.6-0.4-7.6-0.5c-2.7-0.4-6.9-1.7-11.1-1.9
					C130.5,102.7,134.5,102.2,138.2,102.6z"/>
				<path class="st20" d="M184.3,123.8c0,0.1-0.9,0.7-1.1,1c-0.1,0.1,0.1,0.6,0,0.8c-0.1,0.2-2.7,0.8,0.7,1.7
					c-0.4,0.4-0.8,0.1-0.9,0.3c-0.1,0.3,0.2,2.4-0.7,2.3c-0.1,0-1.8-0.3-1.9-0.2c-0.3,0.1-2.2,4-3.2,5.1c-5,5.9-12.1,3-11.8-4.5
					c1.7,0.2,6.2,0.3,4.4-1.5c6.6-0.1,11.5-3.8,13.8-9.8C184.5,119.3,184.4,123.4,184.3,123.8z"/>
				<path class="st20" d="M132.3,128.1c4.2,1.1,9.2,0.5,12.7-2.2c-0.2,7.4-13.7,14.6-15.1,8.9C129,131.4,132.7,131.5,132.3,128.1z"
					/>
				<path class="st20" d="M155.4,116.8c2.7,6.8,6.2,12.2,14.4,12c1.9,1.8-2.6,1.7-4.4,1.5c-6.8-0.7-9.7-7.3-10.7-13.2
					C155.1,116.9,155.1,116.9,155.4,116.8z"/>
				<path class="st24" d="M122.9,118.1c-1.2,1-0.4,4.8-0.4,6.1c-1.1-0.4-2.4-1.4-3.1-2.4c-0.7-4.8,2.7-3.5,3.1-5
					C122.6,117.2,122.7,117.6,122.9,118.1z"/>
				<path class="st24" d="M185.1,123.3c1.2-2.4,2.1-3.8-1.1-5.2c0.2-0.5,0.3-1,0.4-1.5C188.7,118.4,189,120.8,185.1,123.3z"/>
				<path class="st19" d="M185.1,123.3c-0.1,0.3-0.3,0.4-0.4,0.7c-0.1-0.1-0.5,0.1-0.4-0.2c0.1-0.4,0.2-4.5-0.7-4.8
					c0.2-0.5,0.4-0.7,0.4-0.9C187.3,119.5,186.3,120.9,185.1,123.3z"/>
				<path class="st25" d="M122.4,116.3c0,0.1,0,0.3,0,0.4c-0.3,1.5-3.8,0.3-3.1,5c-1.7-2.5-0.6-2.3-0.2-4.6
					C120.4,116,120.7,116,122.4,116.3z"/>
				<path class="st20" d="M186.2,111.7c0.6,1,2,2.7,1.5,3.5c-0.4-0.4-1.4-0.9-1.5-1.1C185.4,113.1,185.1,112.6,186.2,111.7z"/>
				<path class="st18" d="M187.8,115.2c3.8,3.8-1.2-0.6-1.7-0.9c0.1-0.1,0.1-0.1,0.2-0.2C186.4,114.3,187.4,114.8,187.8,115.2z"/>
				<path class="st15" d="M121.8,126.2c-1,3.3,0.5,1.8,0.7-0.7c1.1,0.8,1.6,3.1,2,4.6c-2.9,0.8-5.6-0.3-3.5,2.8
					c-2.3-0.5-1.5-3-1.5-3.2c-0.4-1.3-1.8-3.7-1.5-4.9C118.6,125.4,120.8,125.6,121.8,126.2z"/>
				<path class="st18" d="M122.4,125.5c-0.2,2.4-1.7,4-0.7,0.7c0.2-0.5,0.2-1.2,0.7-1.5C122.4,124.9,122.4,125.2,122.4,125.5z"/>
				<path class="st25" d="M149.7,131.2c0.8,0.4,1.6,1.7,2.2,2.4c-0.5,0.3-1.7,0-2.2-0.2c-0.1,0-0.2,0-0.2,0
					C147.4,132.3,147.2,129.9,149.7,131.2z"/>
				<g>
					<path class="st26" d="M162.6,143c-3.6,0.3-3.6,0.3-7.1,0.7c-2.6,1.2-5.4,1.2-8.2,1.3c-0.8-0.3-2.5-1-3.1-0.7
						c-1.1-0.9-2.1-1.8-3.3-2.5c-0.2-0.6,0.8,0.2,3.1,0.3c2.8,0.1,4.5-0.8,6.2-0.7c0.5,0.1,1.9,0.8,2.2,0.9c1.3,0.1,2.5-0.7,2.6-0.7
						c2.1-0.1,3.6,1.2,5.7,0.9c0.1,0,0.5-0.4,0.5-0.4C163.9,141.7,165.4,140.3,162.6,143z"/>
					<path class="st27" d="M161.3,142.1c0,0-0.4,0.4-0.5,0.4c-2.1,0.3-3.5-1-5.7-0.9c-0.1,0-1.3,0.8-2.6,0.7c-0.3,0-1.6-0.8-2.2-0.9
						c-1.8-0.2-3.4,0.8-6.2,0.7c1.4-0.4,5-2.3,6.1-2.2c0.1,0,1.6,1.1,2.3,1.1C153.6,141,153.2,138.9,161.3,142.1z"/>
					<path class="st28" d="M147.3,145c2,0.8,3.8,1.8,5.9,2.2c-1.1,1.3-3.9-0.9-5.5-0.2c-1.1-0.5-2.5-1.8-3.5-2.6
						C144.8,144,146.6,144.7,147.3,145z"/>
					<path class="st26" d="M153.2,147.1c0.4,0.1,1.9,0.4,2,0.4c0,0.1,0,0.1,0,0.2c-0.9-0.1-3.5,1-7.4-0.9
						C149.3,146.2,152.1,148.4,153.2,147.1z"/>
					<path class="st29" d="M162.6,143c-1.7,1.6-5.1,4.4-7.4,4.6c-0.1,0-1.6-0.4-2-0.4c-2.1-0.4-3.9-1.4-5.9-2.2
						c2.8-0.1,5.6-0.1,8.2-1.3C159.1,143.3,159.1,143.3,162.6,143z"/>
				</g>
				<g>
					<path class="st22" d="M155.4,116.8c-0.3,0.2-0.3,0.2-0.7,0.3c1,6,3.9,12.5,10.7,13.2c-0.3,7.5,6.8,10.4,11.8,4.5
						c1-1.2,2.9-5,3.2-5.1c0.1,0,1.8,0.2,1.9,0.2c0,0,0.6,0.4,0.4,0.7c-3.1-0.1-1.3,0.1-2,3.7c-0.9,4.9-3.1,11.1-6.3,14.9
						c-1.3,1.5-3.1,2.8-4.6,4.2c-4.9,3.3-11.6,8.5-17.8,7.9c-0.7-0.1-2.5-0.8-3.4-1.1c-4.1-6,3.2-9.4,7.8-11.6
						c0.5-0.4-0.9-0.6-1.2-0.7c0-0.1,0-0.1,0-0.2c2.3-0.1,5.8-3,7.4-4.6c2.7-2.7,1.3-1.3-1.3-0.9c-8.1-3.2-7.7-1.1-8.9-1.1
						c-0.7,0-2.2-1.1-2.3-1.1c-0.3-3.3-0.3-3.3-0.7-6.6c0.1,0,0.2,0,0.2,0c1.3,2.1,1.3,2.1,2.5,4.2c0.7-1.9,1.6-3.9,0.7-3.5
						c-0.6,1.3-0.6,0.1-1-0.4c-0.6-0.7-1.3-2-2.2-2.4c-0.2-4.5,1.9-9,0-13.3c0.1-0.2,0.3-3.7,2.3-4.2
						C155.7,112.8,155.1,115.9,155.4,116.8z"/>
					<path class="st30" d="M155.1,131.2c2.5-0.5,4.3,1.6-1.7,2.4C152.9,133.3,154,131.4,155.1,131.2z"/>
					<path class="st14" d="M151.9,133.6c0.4,0.5,0.4,1.8,1,0.4c0.9-0.4,0.1,1.6-0.7,3.5c-1.3-2.1-1.3-2.1-2.5-4.2
						C150.3,133.6,151.4,133.9,151.9,133.6z"/>
				</g>
				<path class="st23" d="M183.2,125.5c2.1,1.5,0.9,1.6,0.7,1.7C180.5,126.3,183.1,125.7,183.2,125.5z"/>
				<g>
					<path class="st23" d="M177.9,103.4c-0.1,0-0.1,0-0.2,0c-2.1-0.7-4.3-0.2-6.3,0.2c-3.4-0.1-9.7,2.3-11.1,0.7
						c1.2-1.2,12.9-2.2,15-2C175.7,102.4,177.5,103,177.9,103.4z"/>
					<path class="st31" d="M171.4,103.6c-1.7,0.4-14.4,5.5-11.1,0.7C161.6,106,168,103.6,171.4,103.6z"/>
				</g>
				<g>
					<path class="st21" d="M124.4,130.1c0.5,2.4,0.2,2.5,0.2,2.6c-0.5,0.3-1,0.2-1.5,0.2c-0.2,0-0.4,0-0.7,0c-0.5,0-1.2,0.1-1.5,0
						C118.8,129.8,121.5,130.9,124.4,130.1z"/>
					<g>
						<path class="st21" d="M137.7,106.3c6.9,0.6,11.1,4,11.7,4.2c0.4,0.1,7.1,0.1,7.4,0c0.5-0.1,3.3-3.2,9.9-4.2
							c0.7,0.5,1.3,0,0.3,0.9c-2-0.3-6.8,1.7-8.4,3.6c-0.4,0.4-1.2,1.8-0.4,1.4c-0.1,0.2-0.4,1-0.4,1.1c-0.9,3.8,1,9.4,4,11.8
							c6.4,5,17.5,1.9,20-5.9c1.1-3.5,1.2-6.7-0.9-9.8c-0.9-1.4-2.1-0.6-0.4-2.2c0.8,0.2,2.7,0.7,3.3,0.9c1,0.4,1,1,2.5,1.3
							c0.1-0.9-1.2-2.5-0.5-2.4c1.2,1.9,1.5,2.1,2.6,4.4c-0.9,0-1.3-0.2-2.2,0.4c-1.2,0.8-0.8,1.3,0,2.4c-0.1,0.1-0.1,0.1-0.2,0.2
							c-2-1.1-1.1,0.6-1.5,2.2c-0.1,0.5-0.3,1-0.4,1.5c-0.1,0.2-0.2,0.3-0.4,0.9c-2.3,6.1-7.2,9.7-13.8,9.8
							c-8.3,0.1-11.8-5.2-14.4-12c-0.3-0.9,0.2-3.9-3.4-3.1c-2,0.5-2.2,3.9-2.3,4.2c-1.1,2.9-2.2,6.1-4.8,8.1
							c-3.5,2.7-8.5,3.3-12.7,2.2c-6.3-1.6-7.5-4.7-9.4-10.1c-0.2-0.4-0.3-0.9-0.4-1.3c0-0.1,0-0.3,0-0.4c-0.6-1.9-0.8-4.4-3.3-4.8
							c0-0.1-0.4-0.4-0.2-0.8c0.6-1.1,4.4-3.8,4.6-4C126.9,107.6,131.8,105.8,137.7,106.3z"/>
						<g>
							<path class="st14" d="M132.8,107.6c3.5-0.3,13.4,0.5,15,4.5c2.6,6.8-4.5,19.1-16.7,14.3c-7.1-2.8-7.8-12.6-6.2-15.4
								C125.9,109,130.7,107.8,132.8,107.6z"/>
							<g>
								<path class="st32" d="M136.3,109.8c3.4-0.1,8.6,1.9,8.7,5.9c-7.4,1.6-9.6,1.9-16.2-2c-3.3,5-1.6,0.1,1.1-1.7
									C131.3,111,134.7,109.8,136.3,109.8z"/>
								<path class="st33" d="M136,115.5c0.2,0.2,0.5,0.5,0.4,0.9c-1-0.1-4.5-1.4-4.8-2.4c1.9-0.8,1.9-0.8,3.8-1.5
									C134.9,113.9,135,114.2,136,115.5z"/>
								<path class="st34" d="M138.6,116.3c0-0.1,0-0.1,0-0.2c2.1,0.1,2.9-1.3,2.6-3.3C144.7,115.5,144,116.2,138.6,116.3z"/>
								<g>
									<path class="st35" d="M141.2,112.8c0.3,2-0.5,3.3-2.6,3.3c-0.2-0.1-0.2-0.1-0.3-0.2c1.8,0.2,3.5-1.9,2-3.3
										c-0.5,4-4.9,3.4-3.8-0.3c-0.3-0.5-1.2,0.9-0.4,3.2c-0.9-1.2-1-1.5-0.5-3.1c-1.9,0.8-1.9,0.8-3.8,1.5
										c-0.1-0.2-0.1-0.2-0.1-0.4C134.4,111.5,138.2,110.6,141.2,112.8z"/>
									<path class="st36" d="M138.6,116.1c0,0.1,0,0.1,0,0.2c-0.6,0-1.6,0.1-2.2,0c0-0.4-0.2-0.6-0.4-0.9
										c-0.8-2.3,0.2-3.6,0.4-3.2c-1.1,3.7,3.3,4.3,3.8,0.3c1.5,1.4-0.2,3.5-2,3.3C138.4,116,138.4,116,138.6,116.1z"/>
									<path class="st37" d="M138.9,112.6c0.7-0.4,0.9,1-0.1,0.5C138.9,112.9,138.9,112.9,138.9,112.6z"/>
								</g>
							</g>
						</g>
					</g>
					<g>
						<path class="st38" d="M179,106.7c0.5,0.1,1,0.3,1.5,0.4c-1.7,1.6-0.5,0.8,0.4,2.2c-0.2,0-0.4,0-0.4,0c-2.4-1.3-5.1-2-7.9-2.2
							c-4.2-0.3-12.3,0.6-14.4,5c-0.7,0.4,0.1-1,0.4-1.4c1.6-1.9,6.4-3.9,8.4-3.6c1-0.9,0.4-0.4-0.3-0.9
							C170.8,105.7,175,106,179,106.7z"/>
						<path class="st22" d="M180.6,109.3c0.3,3.3-1.5,7.3,1.3,9.8c-2.5,7.8-13.6,10.9-20,5.9c-3.1-2.4-5-8.1-4-11.8
							c0.9,1.7,1.5-0.3,2.6,1.4c0.1,0.2-1,0.7,2.3,2.5c7.2,4,15.8,0.3,15.8-2.6c-1.7-2-4-4-6.6-4.6c1.8-0.1,0.9-1,1.4-1.1
							c0.1,0,2.6,1,0.8-0.1c0.9-2-1.5-0.6-1.5-1.6C175.4,107.3,178.2,108,180.6,109.3z"/>
						<path class="st14" d="M172.7,107.1c0.1,1,2.4-0.3,1.5,1.6c1.8,1.1-0.7,0.1-0.8,0.1c-0.5,0.1,0.4,1-1.4,1.1
							c-4-0.8-8.4,0.7-10.7,4.2c-0.2,0.2-0.2,0.2-0.4,0.3c3.9,1.4,5.4,2.1,9.6,1.6c2.7-0.3,5.3-1.4,8.1-1.5
							c-0.1,2.9-8.6,6.6-15.8,2.6c-3.3-1.8-2.2-2.4-2.3-2.5c-1.1-1.8-1.7,0.3-2.6-1.4c0-0.1,0.4-0.9,0.4-1.1
							C160.4,107.8,168.4,106.9,172.7,107.1z"/>
						<path class="st15" d="M181,109.3c2.1,3.2,2,6.3,0.9,9.8c-2.8-2.5-1-6.6-1.3-9.8C180.6,109.4,180.8,109.3,181,109.3z"/>
						<path class="st32" d="M172,110c2.6,0.5,4.9,2.6,6.6,4.6c-2.8,0.1-5.4,1.2-8.1,1.5c0-0.3,0.3-0.3,0.4-0.4
							c1.7-0.3,5.5-0.7,2.4-2.4c0.4-1.2-1.2-0.6-1.3-0.7c-2-1.3-5.4-1.2-7.8,0c-1,0.5-1.8,2-3,1.5C163.6,110.7,168,109.1,172,110z"
							/>
						<path class="st21" d="M172,112.6c-0.6-0.1-1-0.5-1.7,0c-1.1-0.8-0.6,1.4,0,0.2c2,2.1-4.2,4.2-3.5-0.3
							c-0.4-0.1-0.4-0.1-0.9-0.1c-5.2,2.5-3.9,2.4,0.9,3.4c-0.7-0.6-0.6-0.9-0.7-1C167.1,116.4,172.5,116.4,172,112.6
							c0.1,0,1.7-0.6,1.3,0.7c-2-1.2,0,0.6-2.4,2.4c-0.1,0.1-0.5,0.2-0.4,0.4c-4.2,0.5-5.8-0.2-9.6-1.6c0.2-0.2,0.2-0.2,0.4-0.3
							c1.2,0.5,1.9-1,3-1.5C166.6,111.4,170,111.3,172,112.6z"/>
						<path class="st39" d="M173.3,113.3c3,1.7-0.7,2.1-2.4,2.4C173.3,113.9,171.3,112.1,173.3,113.3z"/>
						<path class="st40" d="M170.3,112.8c0-0.1,0-0.1,0-0.2c0.7-0.5,1.2-0.1,1.7,0c0.5,3.8-5,3.8-5.9,2.2c-0.2-0.3,0.1-1.2-0.2-2
							c0-0.1,0-0.3,0-0.4c0.4,0.1,0.4,0.1,0.9,0.1C166,117.1,172.2,114.9,170.3,112.8z"/>
						<path class="st39" d="M165.9,112.4c0,0.1,0,0.3,0,0.4c-0.7,1.1,0.2,1.9,0.2,2c0,0.1-0.1,0.4,0.7,1
							C162,114.8,160.7,114.9,165.9,112.4z"/>
						<path class="st33" d="M170.3,112.6c0,0.1,0,0.1,0,0.2C169.7,114,169.2,111.8,170.3,112.6z"/>
						<path class="st41" d="M166.1,114.8c0-0.1-0.9-0.9-0.2-2C166.2,113.6,165.9,114.4,166.1,114.8z"/>
					</g>
				</g>
			</g>
		</g>
	</g>
</g>
</svg>
